<svg width="53" height="53" viewBox="0 0 53 53" fill="none" xmlns="http://www.w3.org/2000/svg">
<path d="M26.5001 4.41666C14.3035 4.41666 4.41675 14.3034 4.41675 26.5C4.41675 38.6966 14.3035 48.5833 26.5001 48.5833C38.6967 48.5833 48.5834 38.6966 48.5834 26.5C48.5834 14.3034 38.6967 4.41666 26.5001 4.41666ZM26.5001 44.1667L30.9167 39.75L33.1251 37.5417V33.125H28.7084V30.9167L26.5001 28.7083H19.8751V35.3333L24.2917 39.75V44.0121C15.5909 42.9212 8.83342 35.4923 8.83342 26.5L11.0417 28.7083H15.4584V24.2917H19.8751L26.5001 17.6667V13.25H22.0834L19.8751 11.0417V10.1362C21.9222 9.29707 24.1592 8.83332 26.5001 8.83332C28.8409 8.83332 31.078 9.30149 33.1251 10.1362V13.25L30.9167 15.4583V19.875L33.1251 22.0833L40.0372 15.1712C41.6978 17.1521 42.9168 19.5084 43.5838 22.0833H39.7501L35.3334 26.5V30.9167L37.5418 33.125H41.9584L42.59 33.7566C39.8163 39.8825 33.6551 44.1667 26.5001 44.1667Z" fill="#E7E7E7"/>
</svg>
