<?xml version="1.0" standalone="no"?>
<!DOCTYPE svg PUBLIC "-//W3C//DTD SVG 20010904//EN"
 "http://www.w3.org/TR/2001/REC-SVG-20010904/DTD/svg10.dtd">
<svg version="1.0" xmlns="http://www.w3.org/2000/svg"
 width="728.000000pt" height="728.000000pt" viewBox="0 0 728.000000 728.000000"
 preserveAspectRatio="xMidYMid meet">
<metadata>
Created by potrace 1.14, written by Peter Selinger 2001-2017
</metadata>
<g transform="translate(0.000000,728.000000) scale(0.100000,-0.100000)"
fill="#000000" stroke="none">
<path d="M3435 7133 c-27 -8 -58 -16 -68 -18 -30 -7 -192 -92 -277 -145 -45
-29 -242 -140 -247 -140 -4 0 -14 -6 -22 -14 -9 -8 -40 -27 -69 -42 -81 -45
-102 -56 -177 -101 -92 -54 -142 -83 -245 -140 -57 -33 -110 -74 -165 -129
-95 -95 -94 -94 -133 -170 -60 -117 -72 -152 -88 -259 -4 -30 -9 -1249 -5
-1447 1 -38 21 -68 43 -64 23 5 70 29 171 88 54 32 100 58 102 58 3 0 39 21
80 46 90 55 148 122 164 191 8 33 13 216 14 568 l2 520 28 37 c18 23 72 62
155 110 70 40 136 78 147 85 11 7 31 18 45 25 14 7 27 15 30 18 3 3 21 14 40
24 19 9 58 31 85 48 28 17 70 41 95 55 25 13 59 33 75 43 41 26 87 50 94 50 4
0 6 -352 6 -783 l0 -783 -173 -100 c-95 -54 -193 -110 -217 -124 -323 -185
-390 -225 -393 -232 -2 -4 -9 -8 -15 -8 -9 0 -143 -75 -197 -110 -8 -6 -26
-16 -40 -22 -14 -7 -27 -15 -30 -18 -3 -3 -14 -10 -25 -16 -11 -6 -144 -82
-295 -169 -151 -87 -284 -163 -295 -170 -11 -6 -45 -25 -75 -43 -163 -97 -215
-127 -220 -127 -3 0 -18 -9 -35 -21 -16 -11 -41 -25 -55 -32 -48 -24 -140 -78
-152 -90 -7 -7 -15 -12 -19 -12 -6 0 -94 -50 -484 -275 -226 -130 -231 -134
-301 -201 -71 -69 -123 -140 -153 -209 -12 -27 -26 -59 -31 -70 -15 -34 -28
-85 -38 -150 -3 -22 -6 -312 -6 -645 0 -595 3 -679 34 -755 4 -11 16 -40 26
-65 27 -68 98 -171 156 -230 48 -47 201 -155 219 -155 5 0 14 -6 21 -13 6 -6
18 -12 25 -12 7 0 13 -4 13 -10 0 -5 6 -10 13 -10 6 -1 48 -23 92 -50 44 -28
92 -55 108 -61 15 -6 27 -15 27 -20 0 -5 5 -9 11 -9 6 0 53 -25 105 -55 52
-31 120 -70 152 -87 31 -17 64 -36 72 -42 15 -11 28 -18 109 -64 25 -14 62
-35 81 -47 35 -21 114 -59 157 -76 24 -9 48 -15 113 -27 43 -8 212 -8 260 -1
68 12 189 59 265 104 42 25 81 45 86 45 5 0 9 5 9 10 0 6 4 10 10 10 9 0 60
29 455 258 99 57 205 118 235 135 30 16 60 33 65 37 9 7 57 35 110 64 140 77
169 109 132 144 -25 23 -267 167 -371 219 -70 36 -136 45 -211 28 -31 -6 -275
-142 -286 -158 -3 -5 -10 -9 -15 -9 -5 0 -38 -17 -74 -38 -36 -20 -84 -48
-107 -61 -23 -13 -119 -69 -214 -123 -228 -133 -208 -133 -449 5 -220 126
-219 125 -298 172 -35 20 -67 37 -73 37 -5 0 -9 5 -9 10 0 6 -5 10 -11 10 -6
0 -45 20 -86 45 -40 25 -78 45 -83 45 -6 0 -10 3 -10 8 0 8 245 152 260 152 5
0 10 5 10 10 0 6 7 10 15 10 8 0 15 5 15 11 0 5 4 8 9 4 5 -3 12 -1 16 4 3 5
18 16 33 24 15 7 97 54 182 104 85 49 254 147 375 217 121 70 227 131 235 136
8 5 43 25 76 44 42 24 68 34 80 29 11 -4 68 -35 127 -70 60 -35 127 -74 150
-87 23 -13 58 -33 77 -45 19 -11 46 -27 60 -34 14 -6 36 -19 50 -28 25 -16
455 -264 540 -312 25 -14 122 -70 216 -124 94 -55 177 -103 185 -106 8 -4 28
-16 44 -27 17 -11 37 -23 45 -27 8 -3 31 -16 50 -28 19 -12 56 -34 83 -48 26
-15 68 -39 95 -54 26 -14 64 -37 84 -50 21 -12 42 -23 48 -23 5 0 10 -4 10
-10 0 -5 4 -10 9 -10 5 0 49 -23 98 -51 48 -29 113 -65 143 -82 30 -16 66 -38
80 -47 14 -9 57 -34 95 -56 39 -21 78 -43 87 -49 9 -5 29 -17 45 -26 15 -9 55
-32 88 -51 517 -299 588 -338 614 -338 10 0 22 -5 29 -12 7 -7 12 -9 12 -6 0
3 23 0 52 -8 85 -22 276 -13 368 18 19 7 37 12 40 13 15 1 130 61 130 67 0 4
4 8 9 8 8 0 195 103 216 119 6 5 35 22 65 38 30 17 72 40 93 52 20 11 54 31
75 42 20 12 39 24 42 28 3 3 23 15 45 27 72 37 130 69 135 75 3 4 25 17 50 29
25 12 47 26 50 29 3 4 28 19 55 33 68 35 162 99 205 140 117 110 207 282 227
430 4 29 7 328 7 663 0 584 -1 613 -21 690 -18 70 -67 191 -83 205 -3 3 -17
23 -31 45 -25 39 -103 122 -147 157 -27 21 -172 108 -387 232 -93 53 -177 101
-185 107 -18 11 -329 190 -414 238 -18 11 -100 58 -182 105 -82 47 -164 90
-182 95 -28 8 -34 7 -44 -12 -16 -30 -18 -434 -2 -505 21 -95 84 -168 187
-214 15 -7 27 -16 27 -20 0 -4 4 -8 10 -8 5 0 47 -22 92 -49 46 -27 99 -58
118 -68 43 -25 140 -81 160 -93 16 -10 104 -61 155 -90 62 -35 161 -91 175
-100 8 -5 41 -25 72 -43 63 -37 91 -67 102 -109 6 -26 10 -867 4 -874 -2 -1
-109 58 -238 133 -288 166 -294 170 -350 201 -25 14 -62 36 -82 49 -21 12 -42
23 -48 23 -5 0 -10 5 -10 10 0 6 -5 10 -10 10 -6 0 -107 56 -225 125 -119 69
-237 137 -262 152 -26 14 -69 39 -95 54 -27 16 -53 29 -58 29 -6 0 -10 4 -10
9 0 5 -8 11 -17 13 -16 3 -17 116 -19 1763 -1 1295 -5 1771 -13 1800 -6 22
-14 51 -17 64 -8 37 -84 191 -95 191 -5 0 -9 6 -9 14 0 21 -141 157 -201 194
-77 48 -352 207 -429 249 -36 20 -72 42 -81 49 -8 8 -18 14 -21 14 -4 0 -39
19 -80 43 -40 24 -93 55 -118 69 -25 14 -63 35 -85 48 -22 12 -44 26 -50 30
-24 18 -169 92 -207 106 -117 43 -317 55 -423 27z m537 -743 c39 -22 74 -40
79 -40 5 0 9 -4 9 -10 0 -5 4 -10 10 -10 5 0 47 -22 92 -49 46 -27 101 -59
123 -71 56 -32 114 -65 243 -140 84 -48 119 -74 139 -105 l27 -40 0 -1724 c0
-1074 -4 -1726 -10 -1728 -31 -11 -692 -400 -706 -416 -10 -11 -18 -26 -18
-33 0 -12 71 -74 85 -74 4 0 44 -22 90 -50 46 -27 88 -50 94 -50 6 0 11 -3 11
-7 0 -5 10 -13 23 -19 12 -6 51 -26 86 -45 55 -29 73 -33 135 -33 80 0 109 11
276 109 52 31 103 59 113 62 9 3 17 8 17 12 0 3 20 17 44 29 l44 24 54 -30
c29 -16 151 -86 271 -156 120 -69 223 -126 228 -126 5 0 9 -4 9 -10 0 -5 4
-10 9 -10 5 0 69 -35 143 -78 74 -43 141 -81 149 -85 8 -4 21 -11 29 -17 15
-10 105 -63 259 -152 46 -26 87 -48 92 -48 4 0 9 -3 11 -7 2 -5 23 -19 48 -32
25 -13 62 -35 84 -48 l38 -25 -108 -62 c-60 -34 -217 -125 -349 -201 -132 -76
-256 -147 -276 -156 -58 -29 -112 -19 -211 40 -48 28 -91 51 -97 51 -6 0 -11
3 -11 8 0 4 -28 22 -62 40 -35 18 -83 46 -108 61 -25 15 -70 41 -100 58 -30
17 -154 88 -275 158 -121 71 -237 138 -257 149 -21 12 -111 63 -200 115 -90
52 -176 102 -193 111 -16 10 -55 32 -85 50 -30 18 -68 40 -85 50 -55 31 -160
91 -175 100 -46 28 -153 90 -155 90 -2 0 -38 20 -79 45 -42 25 -81 45 -86 45
-6 0 -10 4 -10 9 0 5 -15 15 -32 22 -18 7 -52 26 -74 41 -23 15 -44 28 -47 28
-3 0 -51 27 -107 60 -56 33 -106 60 -111 60 -5 0 -9 3 -9 8 0 4 -10 12 -23 18
-45 22 -143 77 -169 95 -14 11 -28 19 -31 19 -2 0 -56 30 -118 67 -63 36 -127
73 -144 81 -16 9 -32 18 -35 21 -3 3 -18 14 -35 23 l-30 17 -2 398 c-1 219 -5
413 -8 431 -8 46 -40 46 -116 1 -28 -16 -54 -29 -59 -29 -6 0 -10 -4 -10 -10
0 -5 -4 -10 -10 -10 -5 0 -42 -19 -82 -43 -40 -23 -84 -48 -98 -55 -54 -28
-121 -84 -144 -121 -41 -65 -48 -113 -50 -345 l-1 -219 -45 -25 c-25 -14 -47
-29 -48 -34 -2 -4 -8 -6 -13 -2 -5 3 -9 0 -9 -5 0 -6 -4 -11 -10 -11 -5 0
-155 -84 -332 -187 -178 -102 -339 -196 -360 -207 -20 -12 -62 -36 -95 -55
-32 -19 -78 -45 -103 -59 -25 -14 -57 -33 -72 -43 -14 -11 -29 -19 -32 -19 -3
0 -29 -14 -58 -31 -66 -39 -118 -69 -121 -69 -1 0 -2 195 -1 433 0 394 2 435
18 470 21 43 34 53 171 132 55 32 129 76 165 97 36 21 82 45 103 54 20 10 37
20 37 25 0 4 12 12 28 18 15 6 36 16 46 23 45 29 124 75 169 98 26 14 47 28
47 32 0 5 5 8 11 8 5 0 110 58 232 129 433 251 487 281 496 281 5 0 11 3 13 8
3 6 69 46 202 122 17 9 71 40 120 69 49 28 93 51 97 51 5 0 9 5 9 10 0 6 4 10
9 10 5 0 49 23 98 51 48 29 107 62 130 75 23 13 92 53 153 89 61 36 115 65
121 65 5 0 9 5 9 10 0 6 4 10 10 10 5 0 47 22 94 50 47 28 87 50 90 50 3 0 25
14 49 30 25 17 48 30 52 30 4 0 19 8 33 18 15 11 56 35 92 54 l66 36 83 -49
c45 -27 87 -49 92 -49 5 0 9 -5 9 -10 0 -6 3 -9 8 -8 4 1 18 -5 32 -13 62 -39
182 -108 210 -120 16 -8 30 -17 30 -20 0 -4 15 -12 33 -20 17 -7 34 -15 37
-18 3 -3 16 -12 30 -20 168 -97 172 -98 195 -75 17 17 17 12 19 264 2 252 -14
319 -91 392 -23 21 -276 174 -373 225 l-25 13 -5 775 c-3 426 -3 780 -2 785 5
15 9 14 84 -30z"/>
</g>
</svg>
