<svg width="60" height="60" viewBox="0 0 60 60" fill="none" xmlns="http://www.w3.org/2000/svg">
<path d="M39.5745 0H20.4254C13.511 0 11.5709 0 8.59424 1.00092C5.07501 2.28702 2.28705 5.07507 1.00085 8.59427C0 11.571 0 13.5111 0 20.4255C0 39.5746 0 39.5746 0 39.5746C0 46.4889 0 48.429 1.00085 51.4058C2.28705 54.9249 5.07501 57.713 8.59424 58.9991C11.571 60 13.511 60 20.4255 60C39.5745 60 39.5745 60 39.5745 60C46.4889 60 48.4291 60 51.4058 58.9991C54.9249 57.713 57.713 54.9249 58.9991 51.4058C60 48.429 60 46.4889 60 39.5746C60 20.4255 60 20.4255 60 20.4255C60 13.5111 60 11.571 58.9991 8.59427C57.713 5.07507 54.9249 2.28702 51.4058 1.00092C48.4291 0 46.4889 0 39.5745 0Z" fill="url(#paint0_linear_9180_20566)"/>
<path d="M46.3956 31.3403L40.2409 27.7869C39.8372 27.5538 39.7 27.633 39.7 28.0991V29.9892C39.7 30.5105 39.9781 30.9923 40.4296 31.2529L44.942 33.8581C45.1959 34.0047 45.3536 34.2779 45.3536 34.5713V38.807L38.1264 34.6344V27.4053H38.1263V17.3811C38.1263 16.0523 37.4116 14.8144 36.261 14.1502L31.5507 11.4307C30.4001 10.7665 28.9706 10.7663 27.82 11.4307L23.1097 14.1502C21.9554 14.8166 21.2443 16.0482 21.2443 17.3811V24.1245C21.2443 24.5907 21.3815 24.6699 21.7852 24.4368L23.422 23.4918C23.8735 23.2311 24.1516 22.7494 24.1516 22.2281V17.3811C24.1516 17.0878 24.3094 16.8146 24.5634 16.6679L28.2317 14.5501L28.2318 22.5319L21.9712 26.1464L21.9713 26.1465L13.6046 30.977C12.4539 31.6413 11.7392 32.8793 11.7393 34.2078V39.6468C11.7393 40.9753 12.454 42.2134 13.6046 42.8777L18.3149 45.5972C19.4692 46.2636 20.8913 46.2636 22.0457 45.5972L27.5709 42.4072C27.9746 42.1741 27.9746 42.0157 27.5709 41.7826L25.9341 40.8376C25.4826 40.5769 24.9263 40.5769 24.4749 40.8376L20.592 43.0794C20.338 43.226 20.0225 43.226 19.7685 43.0794L16.1002 40.9614L22.6981 37.1522L28.9586 40.7667L37.9547 45.9606C39.1053 46.6249 40.5349 46.6249 41.6853 45.9606L46.3956 43.2411C47.5461 42.5768 48.261 41.3388 48.261 40.0102V34.5712C48.261 33.2384 47.5499 32.0068 46.3956 31.3403ZM40.2315 43.4428C39.9777 43.5893 39.6622 43.5894 39.4083 43.4428L30.4122 38.2489L24.1517 34.6344V30.6862C24.1517 30.2201 24.0145 30.1409 23.6108 30.374L21.974 31.319C21.5225 31.5797 21.2444 32.0614 21.2444 32.5827V34.6344L14.6465 38.4436L14.6466 34.2077C14.6466 33.9146 14.8043 33.6414 15.0583 33.4948L24.0543 28.3009V28.3008L29.6854 25.0498L33.1046 27.0238C33.5082 27.2568 33.6454 27.1776 33.6454 26.7115V24.8215C33.6454 24.3001 33.3673 23.8184 32.9158 23.5577L31.139 22.5319V14.5501L34.8074 16.6681C35.0612 16.8146 35.2191 17.0878 35.2191 17.3811V27.7688L35.2191 34.6344L31.7999 36.6084C31.3962 36.8415 31.3962 36.9999 31.7999 37.233L33.4368 38.178C33.8882 38.4387 34.4445 38.4387 34.896 38.178L36.6727 37.1522L43.9 41.3248L40.2315 43.4428Z" fill="url(#paint1_linear_9180_20566)"/>
<defs>
<linearGradient id="paint0_linear_9180_20566" x1="30" y1="-1.69858" x2="30" y2="55.4711" gradientUnits="userSpaceOnUse">
<stop stop-color="#F6FCFE"/>
<stop offset="1" stop-color="#DBEBF9"/>
</linearGradient>
<linearGradient id="paint1_linear_9180_20566" x1="42.4595" y1="15.4211" x2="23.0275" y2="48.8872" gradientUnits="userSpaceOnUse">
<stop stop-color="#B1FC7C"/>
<stop offset="0.485366" stop-color="#5AD172"/>
<stop offset="1" stop-color="#1FB597"/>
</linearGradient>
</defs>
</svg>
