<?xml version="1.0" encoding="UTF-8"?>
<svg width="360px" height="88px" viewBox="0 0 360 88" version="1.1" xmlns="http://www.w3.org/2000/svg" xmlns:xlink="http://www.w3.org/1999/xlink">
    <title>Logo_-_On_Light</title>
    <defs>
        <linearGradient x1="84.1149904%" y1="14.6435937%" x2="30.9084237%" y2="103.779637%" id="linearGradient-1">
            <stop stop-color="#B1FC7C" offset="0%"></stop>
            <stop stop-color="#5AD172" offset="48.53659%"></stop>
            <stop stop-color="#19829C" offset="100%"></stop>
            <stop stop-color="#1FB597" offset="100%"></stop>
        </linearGradient>
    </defs>
    <g id="Page-1" stroke="none" stroke-width="1" fill="none" fill-rule="evenodd">
        <g id="TypeCell-Logo-v1-(Outlines-RGB)" transform="translate(-216.000000, -254.000000)" fill-rule="nonzero">
            <g id="TypeCell_Branding" transform="translate(120.000000, 254.000000)">
                <g id="Logo_-_On_Light" transform="translate(96.000000, 0.000000)">
                    <path d="M114.461426,31.2875977 L114.461426,23.4541016 L152.334961,23.4541016 L152.334961,31.2875977 L114.461426,31.2875977 Z M128.963379,68.9667969 L128.963379,24.425293 L137.833008,24.425293 L137.833008,68.9667969 L128.963379,68.9667969 Z M160.29834,69.2255859 L147.220703,37.6967773 L156.413574,37.6967773 L165.088867,61.7807617 L161.981445,61.7807617 L170.980469,37.6967773 L180.238281,37.6967773 L166.319336,69.1611328 L160.29834,69.2255859 Z M151.623047,82.0444337 L161.139649,61.9101563 L166.319336,69.1611329 L160.62207,82.0444337 L151.623047,82.0444337 L151.623047,82.0444337 Z M183.733887,82.0444336 L183.733887,37.6967774 L192.214844,37.6967774 L192.214844,45.9189454 L190.790527,53.4936524 L192.150391,61.0683594 L192.150391,82.0444336 L183.733887,82.0444336 L183.733887,82.0444336 Z M201.084473,69.6142578 C198.839844,69.6142578 196.811523,69.1499023 194.999023,68.222168 C193.186035,67.2944336 191.739746,66.0322266 190.661133,64.4350586 C189.582031,62.8388672 188.999023,61.0039063 188.913086,58.9321289 L188.913086,47.8613281 C188.999023,45.7895508 189.593262,43.9443359 190.693848,42.3256836 C191.794434,40.7075195 193.239746,39.4238281 195.03125,38.4736328 C196.821777,37.5249023 198.839844,37.0493164 201.084473,37.0493164 C203.975586,37.0493164 206.56543,37.7617187 208.853516,39.1860352 C211.140625,40.6103516 212.942383,42.5527344 214.259277,45.0126954 C215.575195,47.4726563 216.233887,50.256836 216.233887,53.3642579 C216.233887,56.4291993 215.575195,59.1909181 214.259277,61.650879 C212.942383,64.1113282 211.140625,66.0532228 208.853516,67.4775392 C206.56543,68.9018555 203.975586,69.6142578 201.084473,69.6142578 Z M199.595703,61.7807617 C201.149414,61.7807617 202.530273,61.4243164 203.738769,60.7124023 C204.946777,60 205.885254,59.0078125 206.555176,57.734375 C207.223633,56.4619141 207.558594,54.9829102 207.558594,53.2993164 C207.558594,51.659668 207.223633,50.203125 206.555176,48.9296875 C205.885254,47.6567383 204.946777,46.6635742 203.738769,45.9511719 C202.530273,45.2392578 201.149414,44.8833008 199.595703,44.8833008 C198.083984,44.8833008 196.724609,45.2392578 195.516601,45.9511719 C194.308105,46.6635742 193.369141,47.6567383 192.700683,48.9296875 C192.030762,50.203125 191.697265,51.659668 191.697265,53.2993164 C191.697265,54.9829102 192.030762,56.4619141 192.700683,57.734375 C193.36914,59.0078125 194.296875,60 195.484375,60.7124023 C196.670898,61.4243164 198.041504,61.7807617 199.595703,61.7807617 Z M236.756348,69.6142578 C233.476074,69.6142578 230.5625,68.9130859 228.016602,67.5102539 C225.469238,66.1079101 223.452149,64.1757812 221.963379,61.7158203 C220.474121,59.2558594 219.729492,56.4506836 219.729492,53.2993164 C219.729492,50.1918945 220.452148,47.4194336 221.898438,44.9804687 C223.344238,42.5424804 225.318848,40.6000976 227.822266,39.1538085 C230.324707,37.7080077 233.108887,36.9848632 236.173828,36.9848632 C239.194336,36.9848632 241.859863,37.6645507 244.169434,39.0239257 C246.477539,40.383789 248.290527,42.239746 249.607422,44.5917968 C250.923828,46.9448241 251.582031,49.6093749 251.582031,52.5874023 C251.582031,53.1489257 251.549805,53.7202148 251.484863,54.3032226 C251.42041,54.8857421 251.300781,55.5444335 251.128906,56.2773437 L224.844238,56.3422851 L224.844238,49.9975585 L247.179688,49.9331054 L243.748535,52.5874023 C243.661621,50.7319335 243.327637,49.1782226 242.745117,47.9257812 C242.162598,46.6748046 241.320801,45.7148437 240.220215,45.0449218 C239.119629,44.3764648 237.77002,44.0415038 236.173828,44.0415038 C234.490723,44.0415038 233.022949,44.4199218 231.771484,45.1743163 C230.519043,45.9301757 229.559082,46.9873046 228.890625,48.3466796 C228.220703,49.7065429 227.887207,51.3149413 227.887207,53.1699218 C227.887207,55.0698241 228.243164,56.720703 228.955078,58.1225585 C229.66748,59.5258788 230.691894,60.6049804 232.030273,61.3598632 C233.367676,62.1152343 234.921387,62.4926757 236.691894,62.4926757 C238.288086,62.4926757 239.734375,62.2236327 241.029297,61.6835937 C242.324219,61.1440429 243.446289,60.3349609 244.395996,59.2558593 L249.380859,64.2407226 C247.869629,66.0107421 246.024414,67.3481445 243.845703,68.2548828 C241.665527,69.1611328 239.302734,69.6142578 236.756348,69.6142578 Z M278.837402,69.6142578 C275.513184,69.6142578 272.427734,69.0205078 269.579101,67.8339844 C266.730469,66.647461 264.238281,64.9853516 262.101562,62.8486328 C259.965332,60.7124023 258.324219,58.2197266 257.181152,55.3710937 C256.037109,52.5224609 255.46582,49.458496 255.46582,46.1782226 C255.46582,42.8984374 256.037109,39.833496 257.181152,36.9848632 C258.324219,34.1362304 259.965332,31.6547851 262.101562,29.5395507 C264.238281,27.4252929 266.719726,25.7631835 269.546875,24.5546874 C272.373047,23.3466796 275.470703,22.7416991 278.837402,22.7416991 C282.46289,22.7416991 285.65625,23.3354491 288.418945,24.5219725 C291.180664,25.7099608 293.619141,27.3383787 295.734375,29.4101561 L289.77832,35.3662108 C288.525879,33.9853514 286.994629,32.9062499 285.181641,32.1293944 C283.369141,31.3525389 281.253906,30.9638671 278.837402,30.9638671 C276.722168,30.9638671 274.791016,31.3198241 273.042969,32.0322265 C271.294922,32.7441406 269.773437,33.7802734 268.478516,35.1396484 C267.183594,36.4990234 266.19043,38.1176757 265.500488,39.9951172 C264.80957,41.8725586 264.464844,43.9345703 264.464844,46.1782227 C264.464844,48.4663086 264.80957,50.538086 265.500488,52.3930665 C266.19043,54.2495118 267.183594,55.8569337 268.478516,57.2163087 C269.773437,58.5756837 271.294922,59.623047 273.042969,60.3564454 C274.791016,61.0908204 276.722168,61.4570313 278.837402,61.4570313 C281.383301,61.4570313 283.573242,61.0683594 285.408203,60.291504 C287.242187,59.5146485 288.785156,58.4140626 290.037598,56.9897462 L295.993652,62.9458009 C293.878418,65.0610353 291.417969,66.7006837 288.613281,67.8662111 C285.807129,69.0317383 282.548828,69.6142578 278.837402,69.6142578 Z M315.415527,69.6142578 C312.135254,69.6142578 309.22168,68.9130859 306.675781,67.5102539 C304.128418,66.1079101 302.111328,64.1757812 300.622558,61.7158203 C299.133301,59.2558594 298.388672,56.4506836 298.388672,53.2993164 C298.388672,50.1918945 299.111328,47.4194336 300.557617,44.9804687 C302.003418,42.5424804 303.978027,40.6000976 306.481445,39.1538085 C308.983887,37.7080077 311.768066,36.9848632 314.833008,36.9848632 C317.853516,36.9848632 320.519043,37.6645507 322.828613,39.0239257 C325.136719,40.383789 326.949707,42.239746 328.266602,44.5917968 C329.583008,46.9448241 330.241211,49.6093749 330.241211,52.5874023 C330.241211,53.1489257 330.208984,53.7202148 330.144043,54.3032226 C330.07959,54.8857421 329.959961,55.5444335 329.788086,56.2773437 L303.503418,56.3422851 L303.503418,49.9975585 L325.838867,49.9331054 L322.407715,52.5874023 C322.320801,50.7319335 321.986816,49.1782226 321.404297,47.9257812 C320.821777,46.6748046 319.97998,45.7148437 318.879394,45.0449218 C317.778809,44.3764648 316.429199,44.0415038 314.833008,44.0415038 C313.149902,44.0415038 311.682129,44.4199218 310.430664,45.1743163 C309.178223,45.9301757 308.218262,46.9873046 307.549805,48.3466796 C306.879883,49.7065429 306.546387,51.3149413 306.546387,53.1699218 C306.546387,55.0698241 306.902344,56.720703 307.614258,58.1225585 C308.32666,59.5258788 309.351074,60.6049804 310.689453,61.3598632 C312.026855,62.1152343 313.580566,62.4926757 315.351074,62.4926757 C316.947266,62.4926757 318.393555,62.2236327 319.688476,61.6835937 C320.983398,61.1440429 322.105469,60.3349609 323.055176,59.2558593 L328.040039,64.2407226 C326.528808,66.0107421 324.683594,67.3481445 322.504883,68.2548828 C320.324707,69.1611328 317.961914,69.6142578 315.415527,69.6142578 Z M335.484375,68.9667969 L335.484375,22.1591797 L343.965332,22.1591797 L343.965332,68.9667969 L335.484375,68.9667969 Z M351.474609,68.9667969 L351.474609,22.1591797 L359.955566,22.1591797 L359.955566,68.9667969 L351.474609,68.9667969 Z" id="Wordmark_-_Dark" fill="#2B4869"></path>
                    <path d="M86.2095337,50.3913574 L71.0425415,41.6346435 C70.0477295,41.0603027 69.7096558,41.2555541 69.7096558,42.4041747 L69.7096558,47.0617675 C69.7096558,48.3464965 70.3950806,49.5336303 71.5076294,50.1759643 L82.6273804,56.5959472 C83.2531739,56.9572143 83.6417847,57.6304931 83.6418457,58.3533325 L83.6418457,68.7914429 L65.8318481,58.5088501 L65.8317871,40.694458 L65.831665,40.694458 L65.831665,15.9917602 C65.831665,12.7173461 64.0702514,9.666687 61.2349243,8.0299072 L49.6275024,1.3283691 C46.7921753,-0.3083497 43.269226,-0.3087769 40.4338989,1.3283691 L28.826355,8.0299072 C25.9818726,9.6721801 24.2295532,12.7072143 24.2295532,15.9918213 L24.2295532,32.6096192 C24.2295532,33.7583008 24.567688,33.9534913 25.5624389,33.3791504 L29.5960082,31.050354 C30.708557,30.40802 31.3939818,29.2208862 31.3939818,27.9361572 L31.3939818,15.9917602 C31.3939818,15.269104 31.7827147,14.5959472 32.4086913,14.234497 L41.4484862,9.0153808 L41.4485472,28.6849975 L26.0207518,37.592102 L26.0208739,37.5922851 L5.4031371,49.4959716 C2.5674437,51.1331176 0.8063353,54.1838988 0.8063353,57.4577026 L0.8063353,70.8608398 C0.8063353,74.1346435 2.5676268,77.185852 5.4031371,78.8227539 L17.010559,85.524353 C19.8551025,87.166687 23.3596801,87.166687 26.2042236,85.524414 L39.8200683,77.663269 C40.8148803,77.0889282 40.8148803,76.6984863 39.8200683,76.1242065 L35.786499,73.7954101 C34.6738891,73.1530761 33.3031616,73.1530761 32.1905517,73.7954101 L22.6219482,79.3198242 C21.9961547,79.6811523 21.21875,79.6810913 20.5927734,79.3197021 L11.5529174,74.1005249 L27.8119506,64.7134399 L43.2396239,73.6206054 L65.4085692,86.4198608 C68.2442015,88.0570068 71.7669066,88.0569458 74.6020506,86.4198608 L86.2094725,79.7183227 C89.0445555,78.0812377 90.8063353,75.0304565 90.8063353,71.7564086 L90.8063353,58.3532714 C90.8063353,55.0687256 89.0540771,52.0336304 86.2095337,50.3913574 Z M71.0194702,80.2153931 C70.394043,80.5764771 69.6165771,80.5765992 68.9907837,80.215271 L46.8218384,67.4160156 L31.3941651,58.5088501 L31.3941651,48.779541 C31.3941651,47.6309204 31.0560303,47.43573 30.0612794,48.0100098 L26.0277101,50.3388062 C24.9151613,50.9812012 24.2297365,52.168335 24.2297365,53.453064 L24.2297365,58.5088501 L7.9707643,67.895874 L7.9707643,57.4573974 C7.9707643,56.7352294 8.3595583,56.0618286 8.9853517,55.7005004 L31.154236,42.9013061 L31.154175,42.901184 L45.0307619,34.8895873 L53.4566042,39.7542113 C54.4513552,40.3284911 54.7894899,40.1333007 54.7894899,38.9846801 L54.7894899,34.3270873 C54.7894899,33.0423583 54.1040651,31.8552245 52.9914552,31.2128905 L48.6129762,28.6849364 L48.6129152,9.0153807 L57.6529543,14.2347411 C58.2783815,14.5958251 58.6672365,15.2691039 58.6672365,15.9917601 L58.6672365,41.59021 L58.6673586,41.59021 L58.6674196,58.5089112 L50.2416384,63.3735352 C49.2468264,63.947876 49.2468264,64.3382569 50.2416384,64.9125977 L54.2752077,67.2413941 C55.3878176,67.8837281 56.7585451,67.8837281 57.871155,67.2413331 L62.249634,64.71344 L80.0596926,74.9960938 L71.0194702,80.2153931 Z" id="Symbol_-_Green_Gradient_00000016776661703147801390000012410324075379741350_" fill="url(#linearGradient-1)"></path>
                </g>
            </g>
        </g>
    </g>
</svg>