<?xml version="1.0" encoding="UTF-8"?>
<svg width="91px" height="88px" viewBox="0 0 91 88" version="1.1" xmlns="http://www.w3.org/2000/svg" xmlns:xlink="http://www.w3.org/1999/xlink">
    <title>Symbol_-_Green_Gradient_00000016776661703147801390000012410324075379741350_</title>
    <defs>
        <linearGradient x1="84.1149904%" y1="14.6435937%" x2="30.9084237%" y2="103.779637%" id="linearGradient-1">
            <stop stop-color="#B1FC7C" offset="0%"></stop>
            <stop stop-color="#5AD172" offset="48.53659%"></stop>
            <stop stop-color="#19829C" offset="100%"></stop>
            <stop stop-color="#1FB597" offset="100%"></stop>
        </linearGradient>
    </defs>
    <g id="Page-1" stroke="none" stroke-width="1" fill="none" fill-rule="evenodd">
        <g id="TypeCell-Logo-v1-(Outlines-RGB)" transform="translate(-216.000000, -254.000000)" fill="url(#linearGradient-1)" fill-rule="nonzero">
            <g id="TypeCell_Branding" transform="translate(120.000000, 254.000000)">
                <g id="Logo_-_On_Light" transform="translate(96.000000, 0.000000)">
                    <path d="M86.2095337,50.3913574 L71.0425415,41.6346435 C70.0477295,41.0603027 69.7096558,41.2555541 69.7096558,42.4041747 L69.7096558,47.0617675 C69.7096558,48.3464965 70.3950806,49.5336303 71.5076294,50.1759643 L82.6273804,56.5959472 C83.2531739,56.9572143 83.6417847,57.6304931 83.6418457,58.3533325 L83.6418457,68.7914429 L65.8318481,58.5088501 L65.8317871,40.694458 L65.831665,40.694458 L65.831665,15.9917602 C65.831665,12.7173461 64.0702514,9.666687 61.2349243,8.0299072 L49.6275024,1.3283691 C46.7921753,-0.3083497 43.269226,-0.3087769 40.4338989,1.3283691 L28.826355,8.0299072 C25.9818726,9.6721801 24.2295532,12.7072143 24.2295532,15.9918213 L24.2295532,32.6096192 C24.2295532,33.7583008 24.567688,33.9534913 25.5624389,33.3791504 L29.5960082,31.050354 C30.708557,30.40802 31.3939818,29.2208862 31.3939818,27.9361572 L31.3939818,15.9917602 C31.3939818,15.269104 31.7827147,14.5959472 32.4086913,14.234497 L41.4484862,9.0153808 L41.4485472,28.6849975 L26.0207518,37.592102 L26.0208739,37.5922851 L5.4031371,49.4959716 C2.5674437,51.1331176 0.8063353,54.1838988 0.8063353,57.4577026 L0.8063353,70.8608398 C0.8063353,74.1346435 2.5676268,77.185852 5.4031371,78.8227539 L17.010559,85.524353 C19.8551025,87.166687 23.3596801,87.166687 26.2042236,85.524414 L39.8200683,77.663269 C40.8148803,77.0889282 40.8148803,76.6984863 39.8200683,76.1242065 L35.786499,73.7954101 C34.6738891,73.1530761 33.3031616,73.1530761 32.1905517,73.7954101 L22.6219482,79.3198242 C21.9961547,79.6811523 21.21875,79.6810913 20.5927734,79.3197021 L11.5529174,74.1005249 L27.8119506,64.7134399 L43.2396239,73.6206054 L65.4085692,86.4198608 C68.2442015,88.0570068 71.7669066,88.0569458 74.6020506,86.4198608 L86.2094725,79.7183227 C89.0445555,78.0812377 90.8063353,75.0304565 90.8063353,71.7564086 L90.8063353,58.3532714 C90.8063353,55.0687256 89.0540771,52.0336304 86.2095337,50.3913574 Z M71.0194702,80.2153931 C70.394043,80.5764771 69.6165771,80.5765992 68.9907837,80.215271 L46.8218384,67.4160156 L31.3941651,58.5088501 L31.3941651,48.779541 C31.3941651,47.6309204 31.0560303,47.43573 30.0612794,48.0100098 L26.0277101,50.3388062 C24.9151613,50.9812012 24.2297365,52.168335 24.2297365,53.453064 L24.2297365,58.5088501 L7.9707643,67.895874 L7.9707643,57.4573974 C7.9707643,56.7352294 8.3595583,56.0618286 8.9853517,55.7005004 L31.154236,42.9013061 L31.154175,42.901184 L45.0307619,34.8895873 L53.4566042,39.7542113 C54.4513552,40.3284911 54.7894899,40.1333007 54.7894899,38.9846801 L54.7894899,34.3270873 C54.7894899,33.0423583 54.1040651,31.8552245 52.9914552,31.2128905 L48.6129762,28.6849364 L48.6129152,9.0153807 L57.6529543,14.2347411 C58.2783815,14.5958251 58.6672365,15.2691039 58.6672365,15.9917601 L58.6672365,41.59021 L58.6673586,41.59021 L58.6674196,58.5089112 L50.2416384,63.3735352 C49.2468264,63.947876 49.2468264,64.3382569 50.2416384,64.9125977 L54.2752077,67.2413941 C55.3878176,67.8837281 56.7585451,67.8837281 57.871155,67.2413331 L62.249634,64.71344 L80.0596926,74.9960938 L71.0194702,80.2153931 Z" id="Symbol_-_Green_Gradient_00000016776661703147801390000012410324075379741350_"></path>
                </g>
            </g>
        </g>
    </g>
</svg>